<svg id="icon--arrows" xmlns="http://www.w3.org/2000/svg" viewBox="0 0 304 200"><path d="M19.7,177.2a7.74,7.74,0,0,1,2.4-5.5L96.6,100,22.2,28.3A7.54,7.54,0,0,1,22.5,17a9.28,9.28,0,0,1,12.2.2h0l80.2,77.2a7.5,7.5,0,0,1,0,11L34.7,182.6a9.17,9.17,0,0,1-12.2.3h0A7.34,7.34,0,0,1,19.7,177.2Z"/><path d="M128.9,157.2a5.54,5.54,0,0,1,1.8-4.1L185.9,100,130.7,46.9a5.64,5.64,0,0,1,.2-8.4,6.76,6.76,0,0,1,9.1.2h0l59.4,57.2a5.57,5.57,0,0,1,0,8.2L140,161.3a6.86,6.86,0,0,1-9.1.2h0A5.65,5.65,0,0,1,128.9,157.2Z"/><path d="M233.7,144a4.1,4.1,0,0,1,1.4-3.1L277.6,100,235.1,59.1a4.23,4.23,0,0,1,.2-6.4,5.32,5.32,0,0,1,7,.1h0l45.7,44a4.35,4.35,0,0,1,0,6.3l-45.7,44a5.33,5.33,0,0,1-7,.2h0A4.22,4.22,0,0,1,233.7,144Z"/></svg>